<svg width="79" height="65" viewBox="0 0 79 65" fill="none" xmlns="http://www.w3.org/2000/svg">
<g clip-path="url(#clip0_186_1744)">
<path d="M12.8037 58.498C12.2356 58.498 10.9629 58.974 9.89471 61.3767L8.94019 64.0289H11.2129L13.1901 58.498H12.8037Z" fill="white"/>
<path d="M69.4391 58.498C68.871 58.498 67.5755 58.974 66.5301 61.3767L65.5756 64.0289H67.8482L69.8255 58.498H69.4391Z" fill="white"/>
<path d="M55.0303 64.0289C55.3087 64.017 55.5765 63.919 55.7964 63.7484C56.0164 63.5777 56.1775 63.343 56.2576 63.0768H52.8485C52.4692 63.1019 52.0947 62.9801 51.8031 62.7368C51.678 62.6325 51.5798 62.4999 51.5166 62.3501C51.4533 62.2003 51.4269 62.0375 51.4395 61.8754C51.4096 61.6649 51.4096 61.4512 51.4395 61.2407C51.5589 60.8923 51.7529 60.574 52.008 60.3078C52.2631 60.0416 52.5732 59.834 52.9167 59.6993C53.2396 59.558 53.587 59.481 53.9394 59.4726H56.553C56.7949 59.4598 57.0292 59.384 57.2326 59.2527C57.4359 59.1215 57.6013 58.9395 57.7121 58.7246V58.498H54.2349C53.507 58.5144 52.7861 58.6444 52.0986 58.8833C51.4611 59.0377 50.8703 59.3429 50.3758 59.7729C49.8814 60.2029 49.4979 60.7452 49.2577 61.354C49.1703 61.5939 49.1242 61.8469 49.1213 62.1021C49.1228 62.4217 49.2184 62.7339 49.3961 62.9999C49.5739 63.2658 49.8261 63.4739 50.1213 63.5982C50.7649 63.9085 51.4751 64.0564 52.1895 64.0289H55.0303Z" fill="white"/>
<path d="M29.9854 58.9059C29.3431 58.5894 28.6333 58.4338 27.9172 58.4525H24.5536C24.361 58.474 24.1768 58.5434 24.018 58.6543C23.8592 58.7652 23.7308 58.914 23.6445 59.0872C23.4173 59.6992 22.0764 63.5074 22.0764 63.5074C22.0764 63.5074 22.0764 63.9607 22.6446 63.9834H25.8945C26.6138 63.9745 27.3272 63.8521 28.0081 63.6207C28.6433 63.4611 29.2316 63.1541 29.7253 62.7247C30.2189 62.2954 30.604 61.7558 30.849 61.1499C30.943 60.9032 30.9967 60.643 31.0081 60.3793C31.0032 60.0602 30.9034 59.7498 30.7213 59.4874C30.5392 59.2251 30.2831 59.0227 29.9854 58.9059ZM28.5536 61.1726C28.429 61.5218 28.2306 61.8402 27.9718 62.1062C27.7129 62.3721 27.3998 62.5794 27.0536 62.714C26.7288 62.8493 26.3825 62.926 26.0309 62.9407H24.5082L25.8036 59.3366H27.2809C27.6528 59.3151 28.0189 59.4368 28.3036 59.6766C28.4272 59.782 28.5244 59.9148 28.5876 60.0644C28.6507 60.2139 28.678 60.3761 28.6672 60.5379C28.6742 60.7995 28.6357 61.0602 28.5536 61.3086V61.1726Z" fill="white"/>
<path d="M8.03116 58.7472C7.47731 58.5881 6.90291 58.5117 6.32664 58.5205H2.57672C2.36006 58.5417 2.15624 58.633 1.99627 58.7802C1.8363 58.9275 1.72891 59.1228 1.69037 59.3365C1.41765 60.1752 0.213104 63.4394 0.213104 63.4394C0.195414 63.5076 0.193892 63.5789 0.208665 63.6478C0.223439 63.7167 0.254127 63.7812 0.29824 63.8362C0.342352 63.8912 0.398699 63.9351 0.462824 63.9646C0.526949 63.9941 0.597056 64.0083 0.667635 64.0061H4.23577C4.84883 64.0049 5.45945 63.9288 6.05393 63.7794C7.28118 63.53 8.03117 63.0767 8.32662 62.4193C8.35361 62.2923 8.35361 62.161 8.32662 62.034C8.29618 61.8623 8.22722 61.6998 8.12489 61.5585C8.02257 61.4172 7.8895 61.3007 7.7357 61.2179C8.02747 61.122 8.29673 60.9682 8.5272 60.7656C8.75766 60.563 8.94458 60.3159 9.07661 60.0392C9.0958 59.9343 9.0958 59.8268 9.07661 59.7219C9.21297 59.2912 8.78114 58.9058 8.03116 58.7472ZM5.91757 62.442C5.91757 62.6913 5.55392 62.8727 5.07666 62.986C4.81202 63.0092 4.54587 63.0092 4.28124 62.986H2.46308L2.94032 61.6486H4.6903C4.95099 61.6609 5.20982 61.6989 5.46301 61.762C5.78118 61.762 5.963 62.0113 5.963 62.1927C5.97301 62.2351 5.97415 62.2791 5.96633 62.322C5.95851 62.3649 5.94192 62.4058 5.91757 62.442ZM6.73574 60.1752C6.65248 60.3289 6.53183 60.4593 6.3849 60.5543C6.23797 60.6494 6.06946 60.7061 5.89482 60.7192C5.63082 60.7539 5.36341 60.7539 5.0994 60.7192H3.28125L3.75849 59.4045H5.50847C5.75717 59.3686 6.00977 59.3686 6.25846 59.4045C6.59937 59.4045 6.73574 59.6539 6.73574 59.8352V60.1752Z" fill="white"/>
<path d="M47.8032 58.7699C47.2401 58.5788 46.6479 58.4868 46.0532 58.4979H42.1896C41.999 58.5541 41.825 58.6557 41.6825 58.7939C41.54 58.9321 41.4332 59.1028 41.3715 59.2913C41.1442 59.9713 39.8488 63.5527 39.8488 63.5527C39.8476 63.668 39.8884 63.7798 39.9637 63.8674C40.0389 63.9549 40.1435 64.0123 40.2579 64.0288H41.9169L42.5078 62.374H44.3942L45.235 64.0288H47.5077L46.5078 62.1247C47.8032 61.7394 48.6214 61.1726 48.7805 60.3793C48.8 60.2212 48.8 60.0613 48.7805 59.9033C48.8714 59.4046 48.5077 59.0419 47.8032 58.7699ZM46.3487 60.4699C46.2669 60.6724 46.1375 60.8522 45.9713 60.9942C45.8052 61.1363 45.6072 61.2363 45.3941 61.2859C45.1448 61.3695 44.8844 61.4153 44.6214 61.4219H42.8715L43.576 59.4726H45.2578C45.5243 59.4636 45.7892 59.518 46.0305 59.6313C46.1425 59.6789 46.2385 59.7576 46.307 59.8581C46.3754 59.9585 46.4136 60.0765 46.4168 60.1979C46.4133 60.2924 46.3901 60.385 46.3487 60.4699Z" fill="white"/>
<path d="M38.3261 63.5528L38.4852 63.0995H35.0762C34.7032 63.1019 34.3412 62.9735 34.0535 62.7368C33.9176 62.6105 33.8123 62.4551 33.7453 62.2824C33.6784 62.1096 33.6517 61.924 33.6671 61.7394H38.3261C38.4866 61.7386 38.6429 61.688 38.7732 61.5946C38.9035 61.5011 39.0015 61.3695 39.0534 61.218L39.2125 60.7873H33.8944C34.1218 60.3908 34.4513 60.0621 34.8489 59.8353C35.246 59.5946 35.7024 59.469 36.1671 59.4726H39.0761C39.2439 59.4562 39.4049 59.3977 39.5439 59.3026C39.683 59.2075 39.7957 59.0789 39.8715 58.9286L40.0079 58.498H36.3489C35.621 58.5144 34.9002 58.6444 34.2126 58.8833C33.5753 59.032 32.9846 59.3354 32.493 59.7664C32.0014 60.1974 31.6241 60.7427 31.3944 61.354C31.29 61.5897 31.2358 61.8445 31.2354 62.1021C31.2368 62.4217 31.3324 62.7339 31.5101 62.9999C31.6879 63.2658 31.9401 63.4739 32.2353 63.5982C32.8881 63.9053 33.6049 64.0529 34.3262 64.0289H37.508C37.675 64.0322 37.8398 63.9895 37.9841 63.9055C38.1285 63.8215 38.2468 63.6995 38.3261 63.5528Z" fill="white"/>
<path d="M61.6212 63.0768C61.2212 63.0994 60.8263 62.9788 60.5075 62.7368C60.3783 62.6336 60.2743 62.5024 60.2034 62.3532C60.1325 62.2039 60.0966 62.0406 60.0985 61.8754C60.1131 61.6584 60.1591 61.4447 60.2348 61.2407L60.9393 59.246C61.0984 58.7926 60.3712 58.6566 59.9621 58.6113H59.0076L58.0303 61.3767C57.9273 61.6367 57.8734 61.9134 57.8712 62.1928C57.8697 62.5131 57.9641 62.8266 58.1422 63.0931C58.3204 63.3596 58.5742 63.567 58.8712 63.6888C59.5199 64.0098 60.2383 64.1656 60.9621 64.1422H64.4166L64.7802 63.1902L61.6212 63.0768Z" fill="white"/>
<path d="M77.1891 58.77C76.6256 58.5807 76.0337 58.4887 75.4391 58.498H71.5528C71.371 58.498 70.9847 58.7473 70.7574 59.4726C70.5301 60.198 69.3029 63.4622 69.3029 63.4622C69.2729 63.5763 69.2866 63.6975 69.3412 63.8022C69.3958 63.9069 69.4874 63.9877 69.5983 64.0289H71.2801L71.8483 62.3968H73.9846C74.6083 62.377 75.2269 62.278 75.8255 62.1021C76.3133 62.013 76.7733 61.8106 77.1681 61.5113C77.5629 61.212 77.8815 60.8243 78.0982 60.3793C78.1177 60.2213 78.1177 60.0614 78.0982 59.9033C78.2573 59.4046 77.8937 59.042 77.1891 58.77ZM75.7346 60.47C75.6528 60.6724 75.5234 60.8523 75.3572 60.9943C75.1911 61.1363 74.9931 61.2364 74.78 61.286C74.5307 61.3696 74.2703 61.4154 74.0073 61.422H72.1892L72.8937 59.4726H74.6892C74.9557 59.4637 75.2205 59.5181 75.4619 59.6313C75.5739 59.679 75.6698 59.7577 75.7383 59.8582C75.8068 59.9586 75.8449 60.0766 75.8482 60.198C75.8307 60.2959 75.792 60.3887 75.7346 60.47Z" fill="white"/>
<path d="M20.7354 58.906C20.0907 58.5716 19.3708 58.4078 18.6445 58.43H14.5765L12.9856 62.9635C12.9238 63.0997 12.8854 63.2453 12.8719 63.3942C12.8688 63.4526 12.8777 63.5111 12.898 63.5659C12.9184 63.6208 12.9497 63.671 12.9901 63.7134C13.0305 63.7559 13.0791 63.7897 13.1331 63.8127C13.187 63.8357 13.2451 63.8476 13.3038 63.8475H13.3265C13.606 63.8773 13.8878 63.8773 14.1674 63.8475H14.7355L16.3719 59.314H17.94C18.3233 59.2836 18.7041 59.3967 19.0082 59.6314C19.1464 59.7316 19.2566 59.8654 19.3282 60.0202C19.3999 60.175 19.4305 60.3454 19.4173 60.5154C19.4106 60.7239 19.3723 60.9303 19.3036 61.1274L18.3264 63.8702H20.1445C20.5763 63.8702 20.7127 63.5982 20.7354 63.4622L21.5536 61.1954C21.6502 60.9502 21.6966 60.6881 21.6899 60.4247C21.6998 60.1057 21.6143 59.791 21.4443 59.5205C21.2744 59.2501 21.0276 59.0362 20.7354 58.906Z" fill="white"/>
<path d="M68.7118 0.808879H9.98554C9.1599 0.805895 8.34178 0.965514 7.57813 1.27858C6.81447 1.59165 6.1203 2.05201 5.53543 2.63326C4.95055 3.2145 4.48647 3.9052 4.16982 4.66572C3.85317 5.42625 3.69018 6.24167 3.69019 7.06516V47.5722C3.69018 48.3957 3.85317 49.2111 4.16982 49.9716C4.48647 50.7321 4.95055 51.4228 5.53543 52.0041C6.1203 52.5853 6.81447 53.0457 7.57813 53.3588C8.34178 53.6718 9.1599 53.8314 9.98554 53.8285H68.7118C69.5374 53.8314 70.3556 53.6718 71.1192 53.3588C71.8829 53.0457 72.577 52.5853 73.1619 52.0041C73.7468 51.4228 74.2109 50.7321 74.5275 49.9716C74.8442 49.2111 75.0072 48.3957 75.0072 47.5722V7.06516C75.0072 6.24167 74.8442 5.42625 74.5275 4.66572C74.2109 3.9052 73.7468 3.2145 73.1619 2.63326C72.577 2.05201 71.8829 1.59165 71.1192 1.27858C70.3556 0.965514 69.5374 0.805895 68.7118 0.808879ZM73.8935 47.5722C73.8935 48.9429 73.3476 50.2575 72.3759 51.2267C71.4041 52.1959 70.0861 52.7404 68.7118 52.7404H9.98554C8.6131 52.7344 7.29858 52.188 6.32811 51.22C5.35764 50.2521 4.8098 48.941 4.80382 47.5722V7.06516C4.8098 5.6963 5.35764 4.38517 6.32811 3.41723C7.29858 2.44929 8.6131 1.90291 9.98554 1.89695H68.7118C70.0842 1.90291 71.3988 2.44929 72.3692 3.41723C73.3397 4.38517 73.8876 5.6963 73.8935 7.06516V47.5722Z" fill="white"/>
<path d="M60.1211 29.0299L50.2122 28.1459L47.2804 24.4964L27.1671 15.0213L23.9399 16.2681L14.9401 8.44773L14.9174 7.74504L15.4855 7.38235L62.3484 27.4885L60.1211 29.0299Z" fill="white"/>
<path d="M68.7573 33.3596H58.9847C58.9461 32.4272 58.6296 31.5275 58.0756 30.7755C54.4393 28.9847 10.9173 28.962 4.44019 28.9847V44.1947C10.9173 44.1947 54.4393 44.1947 58.0756 42.4039C58.6235 41.6488 58.9394 40.7509 58.9847 39.8198H68.7573C68.7573 39.8198 70.5754 39.2532 70.5754 37.8931V35.2637C70.5754 33.9716 68.7573 33.3596 68.7573 33.3596Z" fill="white"/>
<path d="M12.3947 19.963C12.7545 18.772 13.2907 17.6412 13.9856 16.6082L15.8946 13.7747L10.3947 14.6134L13.3265 15.9962C12.5244 17.1268 11.9176 18.3833 11.5311 19.7136C11.167 21.0417 11.0136 22.4185 11.0765 23.7938L7.91748 23.4991L12.1674 27.0126L11.9856 23.6351C11.94 22.3977 12.0779 21.1603 12.3947 19.963Z" fill="white"/>
</g>
<defs>
<clipPath id="clip0_186_1744">
<rect width="78.0441" height="63.2426" fill="white" transform="translate(0.213135 0.808838)"/>
</clipPath>
</defs>
</svg>
