<svg width="200" height="87" viewBox="0 0 200 87" fill="none" xmlns="http://www.w3.org/2000/svg">
<g clip-path="url(#clip0_206_203)">
<path d="M120.217 47.8945C116.982 47.8898 113.819 46.9418 111.109 45.1656C108.4 43.3893 106.261 40.861 104.952 37.8871C103.642 34.9132 103.219 31.6213 103.733 28.4103C104.247 25.1994 105.676 22.2073 107.848 19.7967C110.019 17.3861 112.839 15.6604 115.966 14.8288C119.093 13.9971 122.392 14.0953 125.465 15.1114C128.538 16.1274 131.251 18.0177 133.277 20.5532C135.303 23.0887 136.553 26.1606 136.878 29.3964H119.678V32.8432H140.321V31.1424C140.322 26.2445 138.552 21.5133 135.34 17.8305C132.129 14.1478 127.696 11.7648 122.866 11.1257C118.037 10.4867 113.141 11.6351 109.091 14.357C105.041 17.079 102.114 21.1886 100.855 25.9201C99.5962 30.6515 100.091 35.6818 102.248 40.0734C104.405 44.4651 108.076 47.9183 112.577 49.7896C117.079 51.6609 122.104 51.8225 126.715 50.2443C131.326 48.6661 135.21 45.4558 137.641 41.2117L134.722 39.526C133.249 42.0845 131.135 44.2095 128.589 45.6887C126.044 47.1678 123.157 47.9492 120.217 47.9547" fill="#69C9BA"/>
<path d="M20.3575 10.8836C17.0434 10.8828 13.7805 11.7071 10.8603 13.2829C7.94006 14.8587 5.45331 17.137 3.62198 19.9144V0.347656H0.253906V30.9922H3.62198C3.62442 27.0006 5.04046 23.1404 7.61632 20.1032C10.1922 17.0661 13.7595 15.0505 17.679 14.4177C21.5986 13.7848 25.6142 14.5761 29.0062 16.6497C32.3983 18.7234 34.945 21.9438 36.1902 25.7339C37.4353 29.524 37.2975 33.6361 35.8013 37.3333C34.3051 41.0305 31.5485 44.0711 28.0253 45.9103C24.502 47.7496 20.4426 48.2672 16.5743 47.3704C12.706 46.4736 9.28181 44.221 6.91521 41.0163L4.22075 43.0332C6.25342 45.8181 8.96246 48.0324 12.089 49.4643C15.2155 50.8962 18.655 51.4979 22.0787 51.212C25.5025 50.926 28.7961 49.762 31.6449 47.8311C34.4936 45.9002 36.8022 43.267 38.3501 40.1831C39.898 37.0992 40.6335 33.6676 40.4862 30.2164C40.3389 26.7652 39.3138 23.4096 37.5088 20.4703C35.7038 17.5311 33.1793 15.1064 30.1766 13.428C27.1738 11.7496 23.7931 10.8735 20.3575 10.8836Z" fill="#69C9BA"/>
<path d="M88.2428 46.2544H68.4236V49.6259H88.2428V46.2544Z" fill="#69C9BA"/>
<path d="M61.897 11.4561H58.5439V49.566H61.897V11.4561Z" fill="#69C9BA"/>
<path d="M162.176 17.7173H158.823V49.5659H162.176V17.7173Z" fill="#69C9BA"/>
<path d="M179.031 10.8838C175.575 10.8847 172.177 11.7815 169.166 13.4877L170.813 16.4979C173.359 15.0647 176.234 14.3248 179.152 14.3513C182.071 14.3778 184.932 15.1699 187.452 16.6492C189.973 18.1285 192.066 20.2437 193.524 22.7857C194.982 25.3277 195.755 28.2084 195.766 31.1429V49.641H199.119V31.0676C199.111 25.7144 196.992 20.5829 193.226 16.799C189.46 13.0151 184.355 10.8878 179.031 10.8838Z" fill="#69C9BA"/>
<path d="M39.3681 84.0184H39.5926C42.176 83.6588 44.565 82.4388 46.3776 80.5535C48.1903 78.6681 49.3221 76.2261 49.5921 73.6179H37.6167V71.0742H52.077C52.077 71.0742 52.077 72.0676 52.077 72.3837C52.074 75.8645 50.7991 79.2228 48.4946 81.8203C46.1901 84.4177 43.0167 86.0731 39.5777 86.4718H39.2783L39.3681 84.0184Z" fill="#69C9BA"/>
<path d="M97.1943 83.8824H97.3889C99.3667 83.3381 101.17 82.2859 102.621 80.8293C104.072 79.3727 105.122 77.5617 105.667 75.5741V75.3784H108.182V75.7095C107.646 78.3672 106.353 80.8109 104.461 82.743C102.569 84.6751 100.158 86.0123 97.5237 86.5917H97.1943V83.8824Z" fill="#69C9BA"/>
<path d="M143.105 84.0185H143.359C146.504 83.9202 149.529 82.7813 151.965 80.7785C154.401 78.7756 156.111 76.0206 156.831 72.9407V72.73H159.346V73.0461C158.619 76.7766 156.644 80.1443 153.749 82.5896C150.854 85.0348 147.214 86.4101 143.434 86.4869H143.105V84.0185Z" fill="#69C9BA"/>
<path d="M57.4059 70.7734H54.9509V74.6115H57.4059V70.7734Z" fill="#69C9BA"/>
<path d="M62.1215 70.7734H59.6665V74.6115H62.1215V70.7734Z" fill="#69C9BA"/>
<path d="M94.814 70.7734H92.3291V86.5171H94.814V70.7734Z" fill="#69C9BA"/>
<path d="M149.991 70.7734H142.746V73.272H149.991V70.7734Z" fill="#69C9BA"/>
</g>
<defs>
<clipPath id="clip0_206_203">
<rect width="198.806" height="86.1539" fill="white" transform="translate(0.268555 0.422852)"/>
</clipPath>
</defs>
</svg>
