<svg width="30" height="30" viewBox="0 0 30 30" fill="none" xmlns="http://www.w3.org/2000/svg">
<g clip-path="url(#clip0_206_220)">
<path d="M8.7875 0.105395C7.1915 0.180695 6.1016 0.435395 5.1488 0.809795C4.1627 1.19409 3.3269 1.70979 2.4953 2.54439C1.6637 3.37899 1.1516 4.21539 0.770002 5.20299C0.400702 6.1579 0.150502 7.24869 0.0800023 8.8456C0.00950226 10.4425 -0.00609775 10.9558 0.00170225 15.0292C0.00950225 19.1026 0.0275023 19.6132 0.104902 21.2134C0.181102 22.8091 0.434902 23.8987 0.809302 24.8518C1.1942 25.8379 1.7093 26.6734 2.5442 27.5053C3.3791 28.3372 4.2149 28.8481 5.2049 29.2303C6.1589 29.599 7.25 29.8504 8.8466 29.9203C10.4432 29.9902 10.9571 30.0064 15.0293 29.9986C19.1015 29.9908 19.6142 29.9728 21.2141 29.8969C22.814 29.821 23.8979 29.5654 24.8513 29.1928C25.8374 28.807 26.6735 28.2928 27.5048 27.4576C28.3361 26.6224 28.8479 25.7854 29.2292 24.7972C29.5988 23.8432 29.8499 22.7521 29.9192 21.1567C29.9891 19.5556 30.0056 19.0444 29.9978 14.9716C29.99 10.8988 29.9717 10.3882 29.8958 8.7886C29.8199 7.189 29.5658 6.10269 29.1917 5.14899C28.8062 4.16289 28.2917 3.32799 27.4571 2.49549C26.6225 1.66299 25.7849 1.15149 24.797 0.771095C23.8424 0.401795 22.7519 0.150095 21.1553 0.0810947C19.5587 0.0120947 19.0448 -0.0056053 14.9711 0.0021947C10.8974 0.0099947 10.3874 0.0273947 8.7875 0.105395ZM8.9627 27.2218C7.5002 27.1582 6.7061 26.9152 6.1769 26.7118C5.4761 26.4418 4.9769 26.1154 4.4495 25.5931C3.9221 25.0708 3.5981 24.5698 3.3245 23.8705C3.119 23.3413 2.8715 22.5481 2.8031 21.0856C2.7287 19.5049 2.7131 19.0303 2.7044 15.0256C2.6957 11.0209 2.711 10.5469 2.7803 8.9656C2.8427 7.5043 3.0872 6.7093 3.2903 6.1804C3.5603 5.47869 3.8855 4.98039 4.409 4.45329C4.9325 3.92619 5.432 3.60159 6.1319 3.32799C6.6605 3.12159 7.4537 2.87619 8.9156 2.80659C10.4975 2.73159 10.9715 2.71659 14.9756 2.70789C18.9797 2.69919 19.4549 2.71419 21.0374 2.78379C22.4987 2.84739 23.294 3.08949 23.8223 3.29379C24.5234 3.56379 25.0223 3.8881 25.5494 4.4125C26.0765 4.9369 26.4014 5.4346 26.675 6.136C26.8817 6.6631 27.1271 7.456 27.1961 8.9188C27.2714 10.5007 27.2885 10.975 27.2957 14.9788C27.3029 18.9826 27.2888 19.4581 27.2195 21.0388C27.1556 22.5013 26.9132 23.2957 26.7095 23.8255C26.4395 24.526 26.114 25.0255 25.5902 25.5523C25.0664 26.0791 24.5675 26.4037 23.8673 26.6773C23.3393 26.8834 22.5452 27.1294 21.0845 27.199C19.5026 27.2734 19.0286 27.289 15.023 27.2977C11.0174 27.3064 10.5449 27.2902 8.963 27.2218M21.191 6.9835C21.1916 7.33953 21.2978 7.68739 21.4961 7.98308C21.6944 8.27877 21.9759 8.50901 22.3051 8.64468C22.6343 8.78035 22.9963 8.81536 23.3453 8.74527C23.6944 8.67519 24.0148 8.50316 24.2661 8.25095C24.5174 7.99873 24.6883 7.67766 24.7571 7.32834C24.8259 6.97902 24.7895 6.61715 24.6527 6.28848C24.5158 5.95981 24.2845 5.67911 23.9881 5.48189C23.6917 5.28467 23.3434 5.17978 22.9874 5.1805C22.5101 5.18145 22.0527 5.37192 21.7159 5.71004C21.379 6.04815 21.1902 6.50621 21.191 6.9835ZM7.298 15.0154C7.3064 19.2694 10.7612 22.7101 15.0143 22.702C19.2674 22.6939 22.7105 19.2394 22.7024 14.9854C22.6943 10.7314 19.2386 7.28979 14.9849 7.29819C10.7312 7.30659 7.2899 10.762 7.298 15.0154ZM9.9998 15.01C9.99785 14.0211 10.2892 13.0538 10.837 12.2304C11.3848 11.4071 12.1644 10.7647 13.0773 10.3844C13.9902 10.0042 14.9953 9.90315 15.9657 10.0942C16.936 10.2852 17.8278 10.7596 18.5285 11.4575C19.2291 12.1554 19.7071 13.0454 19.902 14.0149C20.0968 14.9845 19.9998 15.99 19.6232 16.9044C19.2465 17.8188 18.6072 18.601 17.786 19.152C16.9649 19.7031 15.9987 19.9982 15.0098 20.0002C14.3532 20.0016 13.7027 19.8736 13.0955 19.6235C12.4883 19.3735 11.9364 19.0063 11.4711 18.5429C11.0059 18.0795 10.6365 17.529 10.384 16.9228C10.1316 16.3166 10.001 15.6666 9.9998 15.01Z" fill="white"/>
</g>
<defs>
<clipPath id="clip0_206_220">
<rect width="30" height="30" fill="white"/>
</clipPath>
</defs>
</svg>
